<mxfile host="Electron" agent="Mozilla/5.0 (Windows NT 10.0; Win64; x64) AppleWebKit/537.36 (KHTML, like Gecko) draw.io/24.7.17 Chrome/128.0.6613.36 Electron/32.0.1 Safari/537.36" version="24.7.17" pages="6">
  <diagram name="Login" id="GhBO-Qck-K8NuHyCjH3x">
    <mxGraphModel dx="1509" dy="880" grid="1" gridSize="10" guides="1" tooltips="1" connect="1" arrows="1" fold="1" page="1" pageScale="1" pageWidth="850" pageHeight="1100" math="0" shadow="0">
      <root>
        <mxCell id="0" />
        <mxCell id="1" parent="0" />
        <mxCell id="EbXNCQhfPdxEsmbgUjeh-3" value="" style="edgeStyle=orthogonalEdgeStyle;rounded=0;orthogonalLoop=1;jettySize=auto;html=1;" parent="1" source="EbXNCQhfPdxEsmbgUjeh-1" target="EbXNCQhfPdxEsmbgUjeh-2" edge="1">
          <mxGeometry relative="1" as="geometry" />
        </mxCell>
        <mxCell id="EbXNCQhfPdxEsmbgUjeh-1" value="Start" style="strokeWidth=2;html=1;shape=mxgraph.flowchart.start_1;whiteSpace=wrap;" parent="1" vertex="1">
          <mxGeometry x="70" y="20" width="100" height="60" as="geometry" />
        </mxCell>
        <mxCell id="EbXNCQhfPdxEsmbgUjeh-8" value="" style="edgeStyle=orthogonalEdgeStyle;rounded=0;orthogonalLoop=1;jettySize=auto;html=1;" parent="1" source="EbXNCQhfPdxEsmbgUjeh-2" target="EbXNCQhfPdxEsmbgUjeh-7" edge="1">
          <mxGeometry relative="1" as="geometry" />
        </mxCell>
        <mxCell id="EbXNCQhfPdxEsmbgUjeh-2" value="&quot;Masukkan Nama :&lt;div&gt;Masukkan Nim : &quot;&lt;br&gt;&lt;div&gt;&lt;br&gt;&lt;/div&gt;&lt;/div&gt;" style="shape=parallelogram;html=1;strokeWidth=2;perimeter=parallelogramPerimeter;whiteSpace=wrap;rounded=1;arcSize=12;size=0.11029411764705882;" parent="1" vertex="1">
          <mxGeometry x="35" y="130" width="170" height="60" as="geometry" />
        </mxCell>
        <mxCell id="EbXNCQhfPdxEsmbgUjeh-5" value="" style="endArrow=classic;html=1;rounded=0;" parent="1" edge="1">
          <mxGeometry width="50" height="50" relative="1" as="geometry">
            <mxPoint x="30" y="140" as="sourcePoint" />
            <mxPoint x="90" y="140" as="targetPoint" />
          </mxGeometry>
        </mxCell>
        <mxCell id="EbXNCQhfPdxEsmbgUjeh-12" value="" style="edgeStyle=orthogonalEdgeStyle;rounded=0;orthogonalLoop=1;jettySize=auto;html=1;entryX=0;entryY=0.5;entryDx=0;entryDy=0;" parent="1" source="EbXNCQhfPdxEsmbgUjeh-7" target="EbXNCQhfPdxEsmbgUjeh-13" edge="1">
          <mxGeometry relative="1" as="geometry">
            <mxPoint x="271.5" y="280" as="targetPoint" />
          </mxGeometry>
        </mxCell>
        <mxCell id="EbXNCQhfPdxEsmbgUjeh-22" style="edgeStyle=orthogonalEdgeStyle;rounded=0;orthogonalLoop=1;jettySize=auto;html=1;exitX=0.5;exitY=1;exitDx=0;exitDy=0;exitPerimeter=0;" parent="1" source="EbXNCQhfPdxEsmbgUjeh-7" edge="1">
          <mxGeometry relative="1" as="geometry">
            <mxPoint x="120" y="390" as="targetPoint" />
          </mxGeometry>
        </mxCell>
        <mxCell id="EbXNCQhfPdxEsmbgUjeh-7" value="&lt;font style=&quot;font-size: 11px;&quot;&gt;if nama = Naufal&lt;/font&gt;&lt;div style=&quot;font-size: 11px;&quot;&gt;&lt;font style=&quot;font-size: 11px;&quot;&gt;&amp;amp;&amp;amp;&lt;/font&gt;&lt;/div&gt;&lt;div style=&quot;font-size: 11px;&quot;&gt;&lt;font style=&quot;font-size: 11px;&quot;&gt;nim == 6049&lt;/font&gt;&lt;/div&gt;" style="strokeWidth=2;html=1;shape=mxgraph.flowchart.decision;whiteSpace=wrap;" parent="1" vertex="1">
          <mxGeometry x="55" y="220" width="130" height="120" as="geometry" />
        </mxCell>
        <mxCell id="EbXNCQhfPdxEsmbgUjeh-15" value="" style="edgeStyle=orthogonalEdgeStyle;rounded=0;orthogonalLoop=1;jettySize=auto;html=1;" parent="1" source="EbXNCQhfPdxEsmbgUjeh-13" target="EbXNCQhfPdxEsmbgUjeh-14" edge="1">
          <mxGeometry relative="1" as="geometry" />
        </mxCell>
        <mxCell id="EbXNCQhfPdxEsmbgUjeh-13" value="kesempatanlogin --" style="rounded=1;whiteSpace=wrap;html=1;absoluteArcSize=1;arcSize=14;strokeWidth=2;" parent="1" vertex="1">
          <mxGeometry x="320" y="235" width="140" height="90" as="geometry" />
        </mxCell>
        <mxCell id="EbXNCQhfPdxEsmbgUjeh-18" value="" style="edgeStyle=orthogonalEdgeStyle;rounded=0;orthogonalLoop=1;jettySize=auto;html=1;" parent="1" source="EbXNCQhfPdxEsmbgUjeh-14" target="EbXNCQhfPdxEsmbgUjeh-16" edge="1">
          <mxGeometry relative="1" as="geometry" />
        </mxCell>
        <mxCell id="EbXNCQhfPdxEsmbgUjeh-20" value="" style="edgeStyle=orthogonalEdgeStyle;rounded=0;orthogonalLoop=1;jettySize=auto;html=1;" parent="1" source="EbXNCQhfPdxEsmbgUjeh-14" target="EbXNCQhfPdxEsmbgUjeh-19" edge="1">
          <mxGeometry relative="1" as="geometry" />
        </mxCell>
        <mxCell id="EbXNCQhfPdxEsmbgUjeh-14" value="if kesempatanlogin &amp;gt; 0" style="strokeWidth=2;html=1;shape=mxgraph.flowchart.decision;whiteSpace=wrap;" parent="1" vertex="1">
          <mxGeometry x="340" y="380" width="100" height="100" as="geometry" />
        </mxCell>
        <mxCell id="EbXNCQhfPdxEsmbgUjeh-21" style="edgeStyle=orthogonalEdgeStyle;rounded=0;orthogonalLoop=1;jettySize=auto;html=1;exitX=0;exitY=0.5;exitDx=0;exitDy=0;entryX=1;entryY=0.5;entryDx=0;entryDy=0;" parent="1" edge="1">
          <mxGeometry relative="1" as="geometry">
            <mxPoint x="185.00000000000006" y="170" as="targetPoint" />
            <mxPoint x="339.50000000000006" y="570" as="sourcePoint" />
            <Array as="points">
              <mxPoint x="260" y="570" />
              <mxPoint x="260" y="160" />
              <mxPoint x="185" y="160" />
            </Array>
          </mxGeometry>
        </mxCell>
        <mxCell id="EbXNCQhfPdxEsmbgUjeh-16" value="&quot;Login gagal!&lt;span style=&quot;background-color: initial;&quot;&gt;&amp;nbsp;anda masih&lt;/span&gt;&lt;div&gt;&lt;span style=&quot;background-color: initial;&quot;&gt;&amp;nbsp;memiliki .... kesempatan&quot;&lt;/span&gt;&lt;/div&gt;" style="shape=parallelogram;html=1;strokeWidth=2;perimeter=parallelogramPerimeter;whiteSpace=wrap;rounded=1;arcSize=1;size=0.14123376623376624;" parent="1" vertex="1">
          <mxGeometry x="293.75" y="530" width="192.5" height="90" as="geometry" />
        </mxCell>
        <mxCell id="JQkryBLeqvJdtoeaMLAZ-1" style="edgeStyle=orthogonalEdgeStyle;rounded=0;orthogonalLoop=1;jettySize=auto;html=1;exitX=0.5;exitY=1;exitDx=0;exitDy=0;" edge="1" parent="1" source="EbXNCQhfPdxEsmbgUjeh-19">
          <mxGeometry relative="1" as="geometry">
            <mxPoint x="569.9473684210529" y="630" as="targetPoint" />
          </mxGeometry>
        </mxCell>
        <mxCell id="EbXNCQhfPdxEsmbgUjeh-19" value="&quot;Anda telah mencapai&amp;nbsp;&lt;div&gt;batas login. silahkan&lt;/div&gt;&lt;div&gt;&amp;nbsp;ulang nanti &quot;&lt;/div&gt;" style="shape=parallelogram;html=1;strokeWidth=2;perimeter=parallelogramPerimeter;whiteSpace=wrap;rounded=1;arcSize=1;size=0.1875;" parent="1" vertex="1">
          <mxGeometry x="490" y="385" width="160" height="90" as="geometry" />
        </mxCell>
        <mxCell id="EbXNCQhfPdxEsmbgUjeh-28" value="" style="edgeStyle=orthogonalEdgeStyle;rounded=0;orthogonalLoop=1;jettySize=auto;html=1;" parent="1" source="EbXNCQhfPdxEsmbgUjeh-23" target="EbXNCQhfPdxEsmbgUjeh-27" edge="1">
          <mxGeometry relative="1" as="geometry" />
        </mxCell>
        <mxCell id="EbXNCQhfPdxEsmbgUjeh-23" value="&quot;Login&amp;nbsp;&lt;div&gt;berhasil&quot;&lt;/div&gt;" style="shape=parallelogram;html=1;strokeWidth=2;perimeter=parallelogramPerimeter;whiteSpace=wrap;rounded=1;arcSize=12;size=0.23;" parent="1" vertex="1">
          <mxGeometry x="70" y="390" width="100" height="60" as="geometry" />
        </mxCell>
        <mxCell id="EbXNCQhfPdxEsmbgUjeh-24" value="" style="endArrow=classic;html=1;rounded=0;exitX=0.75;exitY=1;exitDx=0;exitDy=0;" parent="1" edge="1">
          <mxGeometry width="50" height="50" relative="1" as="geometry">
            <mxPoint x="140" y="440" as="sourcePoint" />
            <mxPoint x="205" y="440" as="targetPoint" />
          </mxGeometry>
        </mxCell>
        <mxCell id="EbXNCQhfPdxEsmbgUjeh-25" value="" style="endArrow=classic;html=1;rounded=0;" parent="1" edge="1">
          <mxGeometry width="50" height="50" relative="1" as="geometry">
            <mxPoint x="430" y="610" as="sourcePoint" />
            <mxPoint x="500" y="610" as="targetPoint" />
          </mxGeometry>
        </mxCell>
        <mxCell id="EbXNCQhfPdxEsmbgUjeh-26" value="" style="endArrow=classic;html=1;rounded=0;" parent="1" edge="1">
          <mxGeometry width="50" height="50" relative="1" as="geometry">
            <mxPoint x="600" y="470" as="sourcePoint" />
            <mxPoint x="679" y="470" as="targetPoint" />
          </mxGeometry>
        </mxCell>
        <mxCell id="EbXNCQhfPdxEsmbgUjeh-27" value="" style="verticalLabelPosition=bottom;verticalAlign=top;html=1;shape=offPageConnector;rounded=0;size=0.5;" parent="1" vertex="1">
          <mxGeometry x="80" y="500" width="80" height="70" as="geometry" />
        </mxCell>
        <mxCell id="EbXNCQhfPdxEsmbgUjeh-29" value="Program CRUD" style="text;html=1;align=center;verticalAlign=middle;whiteSpace=wrap;rounded=0;" parent="1" vertex="1">
          <mxGeometry x="85" y="515" width="70" height="15" as="geometry" />
        </mxCell>
        <mxCell id="JQkryBLeqvJdtoeaMLAZ-2" value="End" style="strokeWidth=2;html=1;shape=mxgraph.flowchart.start_1;whiteSpace=wrap;" vertex="1" parent="1">
          <mxGeometry x="520" y="630" width="100" height="60" as="geometry" />
        </mxCell>
      </root>
    </mxGraphModel>
  </diagram>
  <diagram id="9YWcamV3OKCHhuaAeFzm" name="CRUD">
    <mxGraphModel dx="1509" dy="1980" grid="1" gridSize="10" guides="1" tooltips="1" connect="1" arrows="1" fold="1" page="1" pageScale="1" pageWidth="850" pageHeight="1100" math="0" shadow="0">
      <root>
        <mxCell id="0" />
        <mxCell id="1" parent="0" />
        <mxCell id="kM34jPIL7ubwP52W4LpA-3" value="" style="edgeStyle=orthogonalEdgeStyle;rounded=0;orthogonalLoop=1;jettySize=auto;html=1;" parent="1" source="kM34jPIL7ubwP52W4LpA-1" target="kM34jPIL7ubwP52W4LpA-2" edge="1">
          <mxGeometry relative="1" as="geometry" />
        </mxCell>
        <mxCell id="kM34jPIL7ubwP52W4LpA-1" value="" style="verticalLabelPosition=bottom;verticalAlign=top;html=1;shape=offPageConnector;rounded=0;size=0.5;" parent="1" vertex="1">
          <mxGeometry x="110" y="-1070" width="80" height="70" as="geometry" />
        </mxCell>
        <mxCell id="lpDnvKaGP42Sz76tVbX4-2" value="" style="edgeStyle=orthogonalEdgeStyle;rounded=0;orthogonalLoop=1;jettySize=auto;html=1;" parent="1" source="kM34jPIL7ubwP52W4LpA-2" target="lpDnvKaGP42Sz76tVbX4-1" edge="1">
          <mxGeometry relative="1" as="geometry" />
        </mxCell>
        <mxCell id="kM34jPIL7ubwP52W4LpA-2" value="&quot;Menu program lapangan futsal&lt;div&gt;1. Tambah Lapangan&lt;/div&gt;&lt;div&gt;2. Lihat lapangan&lt;/div&gt;&lt;div&gt;3. ubah lapangan&lt;/div&gt;&lt;div&gt;4. hapus lapangan&lt;/div&gt;&lt;div&gt;5. exit&amp;nbsp;&lt;/div&gt;" style="shape=parallelogram;html=1;strokeWidth=2;perimeter=parallelogramPerimeter;whiteSpace=wrap;rounded=1;arcSize=12;size=0.14423076923076925;" parent="1" vertex="1">
          <mxGeometry x="20" y="-960" width="260" height="100" as="geometry" />
        </mxCell>
        <mxCell id="kM34jPIL7ubwP52W4LpA-4" value="Program&amp;nbsp;&lt;div&gt;CRUD&lt;/div&gt;&lt;div&gt;OUT&lt;/div&gt;" style="text;html=1;align=center;verticalAlign=middle;whiteSpace=wrap;rounded=0;" parent="1" vertex="1">
          <mxGeometry x="120" y="-1060" width="60" height="30" as="geometry" />
        </mxCell>
        <mxCell id="lpDnvKaGP42Sz76tVbX4-6" value="" style="edgeStyle=orthogonalEdgeStyle;rounded=0;orthogonalLoop=1;jettySize=auto;html=1;" parent="1" source="lpDnvKaGP42Sz76tVbX4-1" target="lpDnvKaGP42Sz76tVbX4-5" edge="1">
          <mxGeometry relative="1" as="geometry" />
        </mxCell>
        <mxCell id="lpDnvKaGP42Sz76tVbX4-1" value="&quot;pilih menu&quot;" style="shape=parallelogram;html=1;strokeWidth=2;perimeter=parallelogramPerimeter;whiteSpace=wrap;rounded=1;arcSize=12;size=0.23;" parent="1" vertex="1">
          <mxGeometry x="100" y="-810" width="100" height="60" as="geometry" />
        </mxCell>
        <mxCell id="lpDnvKaGP42Sz76tVbX4-3" value="" style="endArrow=classic;html=1;rounded=0;" parent="1" edge="1">
          <mxGeometry width="50" height="50" relative="1" as="geometry">
            <mxPoint x="230" y="-870" as="sourcePoint" />
            <mxPoint x="290" y="-870" as="targetPoint" />
          </mxGeometry>
        </mxCell>
        <mxCell id="lpDnvKaGP42Sz76tVbX4-4" value="" style="endArrow=classic;html=1;rounded=0;entryX=0.4;entryY=0.167;entryDx=0;entryDy=0;entryPerimeter=0;" parent="1" target="lpDnvKaGP42Sz76tVbX4-1" edge="1">
          <mxGeometry width="50" height="50" relative="1" as="geometry">
            <mxPoint x="80" y="-800" as="sourcePoint" />
            <mxPoint x="110" y="-830" as="targetPoint" />
          </mxGeometry>
        </mxCell>
        <mxCell id="lpDnvKaGP42Sz76tVbX4-37" style="edgeStyle=orthogonalEdgeStyle;rounded=0;orthogonalLoop=1;jettySize=auto;html=1;entryX=0;entryY=0.5;entryDx=0;entryDy=0;entryPerimeter=0;" parent="1" source="lpDnvKaGP42Sz76tVbX4-5" target="lpDnvKaGP42Sz76tVbX4-38" edge="1">
          <mxGeometry relative="1" as="geometry">
            <mxPoint x="560" y="-660" as="targetPoint" />
          </mxGeometry>
        </mxCell>
        <mxCell id="zWTRIqsQrVn3c3XFhRkJ-19" value="" style="edgeStyle=orthogonalEdgeStyle;rounded=0;orthogonalLoop=1;jettySize=auto;html=1;" edge="1" parent="1" source="lpDnvKaGP42Sz76tVbX4-5">
          <mxGeometry relative="1" as="geometry">
            <mxPoint x="150" y="-570" as="targetPoint" />
          </mxGeometry>
        </mxCell>
        <mxCell id="lpDnvKaGP42Sz76tVbX4-5" value="menu 1" style="strokeWidth=2;html=1;shape=mxgraph.flowchart.decision;whiteSpace=wrap;" parent="1" vertex="1">
          <mxGeometry x="100" y="-710" width="100" height="100" as="geometry" />
        </mxCell>
        <mxCell id="lpDnvKaGP42Sz76tVbX4-48" style="edgeStyle=orthogonalEdgeStyle;rounded=0;orthogonalLoop=1;jettySize=auto;html=1;exitX=1;exitY=0.5;exitDx=0;exitDy=0;exitPerimeter=0;entryX=0;entryY=0.5;entryDx=0;entryDy=0;entryPerimeter=0;" parent="1" source="lpDnvKaGP42Sz76tVbX4-38" target="lpDnvKaGP42Sz76tVbX4-49" edge="1">
          <mxGeometry relative="1" as="geometry">
            <mxPoint x="1150" y="-660.3333333333333" as="targetPoint" />
          </mxGeometry>
        </mxCell>
        <mxCell id="zWTRIqsQrVn3c3XFhRkJ-18" value="" style="edgeStyle=orthogonalEdgeStyle;rounded=0;orthogonalLoop=1;jettySize=auto;html=1;" edge="1" parent="1" source="lpDnvKaGP42Sz76tVbX4-38">
          <mxGeometry relative="1" as="geometry">
            <mxPoint x="270" y="-570" as="targetPoint" />
          </mxGeometry>
        </mxCell>
        <mxCell id="lpDnvKaGP42Sz76tVbX4-38" value="Menu 2" style="strokeWidth=2;html=1;shape=mxgraph.flowchart.decision;whiteSpace=wrap;" parent="1" vertex="1">
          <mxGeometry x="220" y="-710" width="100" height="100" as="geometry" />
        </mxCell>
        <mxCell id="lpDnvKaGP42Sz76tVbX4-72" style="edgeStyle=orthogonalEdgeStyle;rounded=0;orthogonalLoop=1;jettySize=auto;html=1;entryX=0;entryY=0.5;entryDx=0;entryDy=0;entryPerimeter=0;exitX=1;exitY=0.5;exitDx=0;exitDy=0;exitPerimeter=0;" parent="1" target="lpDnvKaGP42Sz76tVbX4-73" edge="1" source="lpDnvKaGP42Sz76tVbX4-49">
          <mxGeometry relative="1" as="geometry">
            <mxPoint x="1979" y="-660" as="targetPoint" />
            <mxPoint x="1259" y="-660" as="sourcePoint" />
          </mxGeometry>
        </mxCell>
        <mxCell id="zWTRIqsQrVn3c3XFhRkJ-17" value="" style="edgeStyle=orthogonalEdgeStyle;rounded=0;orthogonalLoop=1;jettySize=auto;html=1;" edge="1" parent="1" source="lpDnvKaGP42Sz76tVbX4-49">
          <mxGeometry relative="1" as="geometry">
            <mxPoint x="405" y="-570" as="targetPoint" />
          </mxGeometry>
        </mxCell>
        <mxCell id="lpDnvKaGP42Sz76tVbX4-49" value="Menu 3" style="strokeWidth=2;html=1;shape=mxgraph.flowchart.decision;whiteSpace=wrap;" parent="1" vertex="1">
          <mxGeometry x="355" y="-710" width="100" height="100" as="geometry" />
        </mxCell>
        <mxCell id="zWTRIqsQrVn3c3XFhRkJ-16" value="" style="edgeStyle=orthogonalEdgeStyle;rounded=0;orthogonalLoop=1;jettySize=auto;html=1;" edge="1" parent="1" source="lpDnvKaGP42Sz76tVbX4-73">
          <mxGeometry relative="1" as="geometry">
            <mxPoint x="540" y="-570" as="targetPoint" />
          </mxGeometry>
        </mxCell>
        <mxCell id="zWTRIqsQrVn3c3XFhRkJ-26" value="" style="edgeStyle=orthogonalEdgeStyle;rounded=0;orthogonalLoop=1;jettySize=auto;html=1;" edge="1" parent="1" source="lpDnvKaGP42Sz76tVbX4-73" target="zWTRIqsQrVn3c3XFhRkJ-25">
          <mxGeometry relative="1" as="geometry" />
        </mxCell>
        <mxCell id="lpDnvKaGP42Sz76tVbX4-73" value="Menu 4" style="strokeWidth=2;html=1;shape=mxgraph.flowchart.decision;whiteSpace=wrap;" parent="1" vertex="1">
          <mxGeometry x="490" y="-710" width="100" height="100" as="geometry" />
        </mxCell>
        <mxCell id="zWTRIqsQrVn3c3XFhRkJ-28" value="" style="edgeStyle=orthogonalEdgeStyle;rounded=0;orthogonalLoop=1;jettySize=auto;html=1;" edge="1" parent="1" source="zWTRIqsQrVn3c3XFhRkJ-25" target="zWTRIqsQrVn3c3XFhRkJ-27">
          <mxGeometry relative="1" as="geometry" />
        </mxCell>
        <mxCell id="zWTRIqsQrVn3c3XFhRkJ-30" style="edgeStyle=orthogonalEdgeStyle;rounded=0;orthogonalLoop=1;jettySize=auto;html=1;" edge="1" parent="1" source="zWTRIqsQrVn3c3XFhRkJ-25" target="zWTRIqsQrVn3c3XFhRkJ-29">
          <mxGeometry relative="1" as="geometry" />
        </mxCell>
        <mxCell id="zWTRIqsQrVn3c3XFhRkJ-25" value="Menu 5" style="strokeWidth=2;html=1;shape=mxgraph.flowchart.decision;whiteSpace=wrap;" vertex="1" parent="1">
          <mxGeometry x="640" y="-710" width="100" height="100" as="geometry" />
        </mxCell>
        <mxCell id="zWTRIqsQrVn3c3XFhRkJ-27" value="&quot;keluar dari&amp;nbsp;&lt;div&gt;program&quot;&lt;/div&gt;" style="shape=parallelogram;html=1;strokeWidth=2;perimeter=parallelogramPerimeter;whiteSpace=wrap;rounded=1;arcSize=12;size=0.1875;" vertex="1" parent="1">
          <mxGeometry x="625" y="-555" width="130" height="90" as="geometry" />
        </mxCell>
        <mxCell id="zWTRIqsQrVn3c3XFhRkJ-31" style="edgeStyle=orthogonalEdgeStyle;rounded=0;orthogonalLoop=1;jettySize=auto;html=1;exitX=1;exitY=0.5;exitDx=0;exitDy=0;entryX=1;entryY=0.5;entryDx=0;entryDy=0;" edge="1" parent="1" source="zWTRIqsQrVn3c3XFhRkJ-29" target="lpDnvKaGP42Sz76tVbX4-1">
          <mxGeometry relative="1" as="geometry">
            <mxPoint x="1200" y="-780" as="targetPoint" />
            <Array as="points">
              <mxPoint x="870" y="-660" />
              <mxPoint x="870" y="-780" />
            </Array>
          </mxGeometry>
        </mxCell>
        <mxCell id="zWTRIqsQrVn3c3XFhRkJ-29" value="&quot;pilihan tidak valid&quot;" style="shape=parallelogram;html=1;strokeWidth=2;perimeter=parallelogramPerimeter;whiteSpace=wrap;rounded=1;arcSize=12;size=0.23;" vertex="1" parent="1">
          <mxGeometry x="750" y="-690" width="100" height="60" as="geometry" />
        </mxCell>
        <mxCell id="zWTRIqsQrVn3c3XFhRkJ-33" value="End" style="strokeWidth=2;html=1;shape=mxgraph.flowchart.start_1;whiteSpace=wrap;" vertex="1" parent="1">
          <mxGeometry x="640" y="-410" width="100" height="60" as="geometry" />
        </mxCell>
        <mxCell id="zWTRIqsQrVn3c3XFhRkJ-34" style="edgeStyle=orthogonalEdgeStyle;rounded=0;orthogonalLoop=1;jettySize=auto;html=1;entryX=0.5;entryY=0;entryDx=0;entryDy=0;entryPerimeter=0;" edge="1" parent="1" source="zWTRIqsQrVn3c3XFhRkJ-27" target="zWTRIqsQrVn3c3XFhRkJ-33">
          <mxGeometry relative="1" as="geometry" />
        </mxCell>
        <mxCell id="zWTRIqsQrVn3c3XFhRkJ-47" style="edgeStyle=orthogonalEdgeStyle;rounded=0;orthogonalLoop=1;jettySize=auto;html=1;" edge="1" parent="1">
          <mxGeometry relative="1" as="geometry">
            <mxPoint x="425" y="-780" as="targetPoint" />
            <mxPoint x="425" y="-840" as="sourcePoint" />
          </mxGeometry>
        </mxCell>
        <mxCell id="zWTRIqsQrVn3c3XFhRkJ-48" style="edgeStyle=orthogonalEdgeStyle;rounded=0;orthogonalLoop=1;jettySize=auto;html=1;" edge="1" parent="1">
          <mxGeometry relative="1" as="geometry">
            <mxPoint x="520" y="-780" as="targetPoint" />
            <mxPoint x="520.0526315789473" y="-840" as="sourcePoint" />
          </mxGeometry>
        </mxCell>
        <mxCell id="zWTRIqsQrVn3c3XFhRkJ-49" style="edgeStyle=orthogonalEdgeStyle;rounded=0;orthogonalLoop=1;jettySize=auto;html=1;" edge="1" parent="1">
          <mxGeometry relative="1" as="geometry">
            <mxPoint x="620" y="-780" as="targetPoint" />
            <mxPoint x="620.0526315789475" y="-840" as="sourcePoint" />
          </mxGeometry>
        </mxCell>
        <mxCell id="zWTRIqsQrVn3c3XFhRkJ-50" style="edgeStyle=orthogonalEdgeStyle;rounded=0;orthogonalLoop=1;jettySize=auto;html=1;" edge="1" parent="1">
          <mxGeometry relative="1" as="geometry">
            <mxPoint x="720" y="-780" as="targetPoint" />
            <mxPoint x="719.9473684210529" y="-840" as="sourcePoint" />
          </mxGeometry>
        </mxCell>
        <mxCell id="VE6VL0C-Rgc8jQlmvgz7-1" value="" style="endArrow=classic;html=1;rounded=0;" edge="1" parent="1">
          <mxGeometry width="50" height="50" relative="1" as="geometry">
            <mxPoint x="710" y="-480" as="sourcePoint" />
            <mxPoint x="780" y="-480" as="targetPoint" />
          </mxGeometry>
        </mxCell>
        <mxCell id="VE6VL0C-Rgc8jQlmvgz7-2" value="" style="endArrow=classic;html=1;rounded=0;" edge="1" parent="1">
          <mxGeometry width="50" height="50" relative="1" as="geometry">
            <mxPoint x="820" y="-640" as="sourcePoint" />
            <mxPoint x="880" y="-640" as="targetPoint" />
          </mxGeometry>
        </mxCell>
        <mxCell id="VE6VL0C-Rgc8jQlmvgz7-24" value="" style="verticalLabelPosition=bottom;verticalAlign=top;html=1;shape=offPageConnector;rounded=0;size=0.5;" vertex="1" parent="1">
          <mxGeometry x="120" y="-570" width="60" height="60" as="geometry" />
        </mxCell>
        <mxCell id="VE6VL0C-Rgc8jQlmvgz7-25" value="Tambah" style="text;html=1;align=center;verticalAlign=middle;whiteSpace=wrap;rounded=0;" vertex="1" parent="1">
          <mxGeometry x="120" y="-565" width="60" height="30" as="geometry" />
        </mxCell>
        <mxCell id="VE6VL0C-Rgc8jQlmvgz7-27" value="" style="verticalLabelPosition=bottom;verticalAlign=top;html=1;shape=offPageConnector;rounded=0;size=0.5;" vertex="1" parent="1">
          <mxGeometry x="240" y="-570" width="60" height="60" as="geometry" />
        </mxCell>
        <mxCell id="VE6VL0C-Rgc8jQlmvgz7-28" value="Lihat" style="text;html=1;align=center;verticalAlign=middle;whiteSpace=wrap;rounded=0;" vertex="1" parent="1">
          <mxGeometry x="240" y="-564" width="60" height="30" as="geometry" />
        </mxCell>
        <mxCell id="VE6VL0C-Rgc8jQlmvgz7-29" value="" style="verticalLabelPosition=bottom;verticalAlign=top;html=1;shape=offPageConnector;rounded=0;size=0.5;" vertex="1" parent="1">
          <mxGeometry x="375" y="-570" width="60" height="60" as="geometry" />
        </mxCell>
        <mxCell id="VE6VL0C-Rgc8jQlmvgz7-30" value="Ubah" style="text;html=1;align=center;verticalAlign=middle;whiteSpace=wrap;rounded=0;" vertex="1" parent="1">
          <mxGeometry x="375" y="-564" width="60" height="30" as="geometry" />
        </mxCell>
        <mxCell id="VE6VL0C-Rgc8jQlmvgz7-31" value="" style="verticalLabelPosition=bottom;verticalAlign=top;html=1;shape=offPageConnector;rounded=0;size=0.5;" vertex="1" parent="1">
          <mxGeometry x="510" y="-570" width="60" height="60" as="geometry" />
        </mxCell>
        <mxCell id="VE6VL0C-Rgc8jQlmvgz7-32" value="Hapus" style="text;html=1;align=center;verticalAlign=middle;whiteSpace=wrap;rounded=0;" vertex="1" parent="1">
          <mxGeometry x="510" y="-563" width="60" height="30" as="geometry" />
        </mxCell>
        <mxCell id="VE6VL0C-Rgc8jQlmvgz7-50" value="" style="verticalLabelPosition=bottom;verticalAlign=top;html=1;shape=offPageConnector;rounded=0;size=0.5;" vertex="1" parent="1">
          <mxGeometry x="395" y="-900" width="60" height="60" as="geometry" />
        </mxCell>
        <mxCell id="VE6VL0C-Rgc8jQlmvgz7-51" value="" style="verticalLabelPosition=bottom;verticalAlign=top;html=1;shape=offPageConnector;rounded=0;size=0.5;" vertex="1" parent="1">
          <mxGeometry x="490" y="-900" width="60" height="60" as="geometry" />
        </mxCell>
        <mxCell id="VE6VL0C-Rgc8jQlmvgz7-52" value="" style="verticalLabelPosition=bottom;verticalAlign=top;html=1;shape=offPageConnector;rounded=0;size=0.5;" vertex="1" parent="1">
          <mxGeometry x="590" y="-900" width="60" height="60" as="geometry" />
        </mxCell>
        <mxCell id="VE6VL0C-Rgc8jQlmvgz7-53" value="" style="verticalLabelPosition=bottom;verticalAlign=top;html=1;shape=offPageConnector;rounded=0;size=0.5;" vertex="1" parent="1">
          <mxGeometry x="690" y="-900" width="60" height="60" as="geometry" />
        </mxCell>
        <mxCell id="VE6VL0C-Rgc8jQlmvgz7-54" value="Tambah&lt;div&gt;OUT&lt;/div&gt;" style="text;html=1;align=center;verticalAlign=middle;whiteSpace=wrap;rounded=0;" vertex="1" parent="1">
          <mxGeometry x="395" y="-890.5" width="60" height="30" as="geometry" />
        </mxCell>
        <mxCell id="VE6VL0C-Rgc8jQlmvgz7-55" value="Lihat&lt;div&gt;OUT&lt;/div&gt;" style="text;html=1;align=center;verticalAlign=middle;whiteSpace=wrap;rounded=0;" vertex="1" parent="1">
          <mxGeometry x="490" y="-890.5" width="60" height="30" as="geometry" />
        </mxCell>
        <mxCell id="VE6VL0C-Rgc8jQlmvgz7-56" value="Ubah&amp;nbsp;&lt;div&gt;OUT&lt;/div&gt;" style="text;html=1;align=center;verticalAlign=middle;whiteSpace=wrap;rounded=0;" vertex="1" parent="1">
          <mxGeometry x="590" y="-890.5" width="60" height="30" as="geometry" />
        </mxCell>
        <mxCell id="VE6VL0C-Rgc8jQlmvgz7-57" value="Hapus&lt;div&gt;OUT&lt;/div&gt;" style="text;html=1;align=center;verticalAlign=middle;whiteSpace=wrap;rounded=0;" vertex="1" parent="1">
          <mxGeometry x="690" y="-890" width="60" height="30" as="geometry" />
        </mxCell>
      </root>
    </mxGraphModel>
  </diagram>
  <diagram id="kTrcNsn7YacORxTM6Q7A" name="Tambah">
    <mxGraphModel dx="1434" dy="1936" grid="1" gridSize="10" guides="1" tooltips="1" connect="1" arrows="1" fold="1" page="1" pageScale="1" pageWidth="850" pageHeight="1100" math="0" shadow="0">
      <root>
        <mxCell id="0" />
        <mxCell id="1" parent="0" />
        <mxCell id="QXhUjr4avp-S5yL_64Xz-1" value="" style="edgeStyle=orthogonalEdgeStyle;rounded=0;orthogonalLoop=1;jettySize=auto;html=1;" edge="1" parent="1" source="QXhUjr4avp-S5yL_64Xz-3" target="QXhUjr4avp-S5yL_64Xz-8">
          <mxGeometry relative="1" as="geometry" />
        </mxCell>
        <mxCell id="QXhUjr4avp-S5yL_64Xz-2" style="edgeStyle=orthogonalEdgeStyle;rounded=0;orthogonalLoop=1;jettySize=auto;html=1;entryX=0;entryY=0.5;entryDx=0;entryDy=0;" edge="1" parent="1" source="QXhUjr4avp-S5yL_64Xz-3" target="QXhUjr4avp-S5yL_64Xz-10">
          <mxGeometry relative="1" as="geometry">
            <mxPoint x="475" y="-507" as="targetPoint" />
          </mxGeometry>
        </mxCell>
        <mxCell id="QXhUjr4avp-S5yL_64Xz-3" value="jumlah lapangan&lt;div&gt;&amp;lt;&lt;/div&gt;&lt;div&gt;max_lapangan&lt;/div&gt;" style="strokeWidth=2;html=1;shape=mxgraph.flowchart.decision;whiteSpace=wrap;" vertex="1" parent="1">
          <mxGeometry x="270" y="-577" width="130" height="130" as="geometry" />
        </mxCell>
        <mxCell id="QXhUjr4avp-S5yL_64Xz-4" value="" style="edgeStyle=orthogonalEdgeStyle;rounded=0;orthogonalLoop=1;jettySize=auto;html=1;" edge="1" parent="1" source="QXhUjr4avp-S5yL_64Xz-6" target="QXhUjr4avp-S5yL_64Xz-12">
          <mxGeometry relative="1" as="geometry" />
        </mxCell>
        <mxCell id="QXhUjr4avp-S5yL_64Xz-5" value="" style="edgeStyle=orthogonalEdgeStyle;rounded=0;orthogonalLoop=1;jettySize=auto;html=1;" edge="1" parent="1" source="QXhUjr4avp-S5yL_64Xz-6" target="QXhUjr4avp-S5yL_64Xz-14">
          <mxGeometry relative="1" as="geometry" />
        </mxCell>
        <mxCell id="QXhUjr4avp-S5yL_64Xz-6" value="IdlLapagan&lt;div&gt;&lt;span style=&quot;background-color: initial;&quot;&gt;==&lt;/span&gt;&lt;/div&gt;&lt;div&gt;&lt;span style=&quot;background-color: initial;&quot;&gt;&amp;nbsp;data lapangan&lt;/span&gt;&lt;/div&gt;" style="rhombus;whiteSpace=wrap;html=1;strokeWidth=2;" vertex="1" parent="1">
          <mxGeometry x="270" y="-297" width="130" height="120" as="geometry" />
        </mxCell>
        <mxCell id="QXhUjr4avp-S5yL_64Xz-7" value="" style="edgeStyle=orthogonalEdgeStyle;rounded=0;orthogonalLoop=1;jettySize=auto;html=1;" edge="1" parent="1" source="QXhUjr4avp-S5yL_64Xz-8" target="QXhUjr4avp-S5yL_64Xz-6">
          <mxGeometry relative="1" as="geometry" />
        </mxCell>
        <mxCell id="QXhUjr4avp-S5yL_64Xz-8" value="&quot; masukkan id&lt;div&gt;lapangan :&quot;&lt;/div&gt;" style="shape=parallelogram;html=1;strokeWidth=2;perimeter=parallelogramPerimeter;whiteSpace=wrap;rounded=1;arcSize=12;size=0.23;" vertex="1" parent="1">
          <mxGeometry x="280" y="-407" width="110" height="60" as="geometry" />
        </mxCell>
        <mxCell id="QXhUjr4avp-S5yL_64Xz-9" style="edgeStyle=orthogonalEdgeStyle;rounded=0;orthogonalLoop=1;jettySize=auto;html=1;entryX=1;entryY=0.667;entryDx=0;entryDy=0;entryPerimeter=0;" edge="1" parent="1" source="QXhUjr4avp-S5yL_64Xz-10">
          <mxGeometry relative="1" as="geometry">
            <mxPoint x="610" y="77.52000000000044" as="targetPoint" />
            <Array as="points">
              <mxPoint x="770" y="-511.5" />
              <mxPoint x="770" y="77.5" />
            </Array>
          </mxGeometry>
        </mxCell>
        <mxCell id="QXhUjr4avp-S5yL_64Xz-10" value="&quot; lapangan sudah penuh&quot;" style="shape=parallelogram;html=1;strokeWidth=2;perimeter=parallelogramPerimeter;whiteSpace=wrap;rounded=1;arcSize=17;size=0.17307692307692307;" vertex="1" parent="1">
          <mxGeometry x="515" y="-549.5" width="130" height="75" as="geometry" />
        </mxCell>
        <mxCell id="QXhUjr4avp-S5yL_64Xz-11" style="edgeStyle=orthogonalEdgeStyle;rounded=0;orthogonalLoop=1;jettySize=auto;html=1;exitX=0;exitY=0.5;exitDx=0;exitDy=0;entryX=0;entryY=0.5;entryDx=0;entryDy=0;" edge="1" parent="1" source="QXhUjr4avp-S5yL_64Xz-12" target="QXhUjr4avp-S5yL_64Xz-8">
          <mxGeometry relative="1" as="geometry">
            <mxPoint x="200" y="-382.5" as="targetPoint" />
            <Array as="points">
              <mxPoint x="296" y="-82.5" />
              <mxPoint x="180" y="-82.5" />
              <mxPoint x="180" y="-376.5" />
            </Array>
          </mxGeometry>
        </mxCell>
        <mxCell id="QXhUjr4avp-S5yL_64Xz-12" value="&quot;id sudah dipakai&quot;" style="shape=parallelogram;html=1;strokeWidth=2;perimeter=parallelogramPerimeter;whiteSpace=wrap;rounded=1;arcSize=12;size=0.23;" vertex="1" parent="1">
          <mxGeometry x="285" y="-107" width="100" height="60" as="geometry" />
        </mxCell>
        <mxCell id="QXhUjr4avp-S5yL_64Xz-13" value="" style="edgeStyle=orthogonalEdgeStyle;rounded=0;orthogonalLoop=1;jettySize=auto;html=1;" edge="1" parent="1" source="QXhUjr4avp-S5yL_64Xz-14" target="QXhUjr4avp-S5yL_64Xz-16">
          <mxGeometry relative="1" as="geometry" />
        </mxCell>
        <mxCell id="QXhUjr4avp-S5yL_64Xz-14" value="&quot;Masukkan harga lapangan :&lt;div&gt;masukkan lokasi lapangan :&lt;/div&gt;&lt;div&gt;masukkan status ketersediaan :&quot;&lt;/div&gt;" style="shape=parallelogram;html=1;strokeWidth=2;perimeter=parallelogramPerimeter;whiteSpace=wrap;rounded=1;arcSize=12;size=0.07894736842105263;" vertex="1" parent="1">
          <mxGeometry x="485" y="-282" width="190" height="90" as="geometry" />
        </mxCell>
        <mxCell id="QXhUjr4avp-S5yL_64Xz-15" style="edgeStyle=orthogonalEdgeStyle;rounded=0;orthogonalLoop=1;jettySize=auto;html=1;entryX=0.5;entryY=0;entryDx=0;entryDy=0;" edge="1" parent="1" source="QXhUjr4avp-S5yL_64Xz-16" target="QXhUjr4avp-S5yL_64Xz-25">
          <mxGeometry relative="1" as="geometry">
            <mxPoint x="580" y="27.5" as="targetPoint" />
          </mxGeometry>
        </mxCell>
        <mxCell id="QXhUjr4avp-S5yL_64Xz-16" value="&quot;Tambah lapangan berhasil&quot;" style="shape=parallelogram;html=1;strokeWidth=2;perimeter=parallelogramPerimeter;whiteSpace=wrap;rounded=1;arcSize=12;size=0.1422413793103448;" vertex="1" parent="1">
          <mxGeometry x="507.5" y="-117" width="145" height="70" as="geometry" />
        </mxCell>
        <mxCell id="QXhUjr4avp-S5yL_64Xz-17" value="" style="endArrow=classic;html=1;rounded=0;" edge="1" parent="1">
          <mxGeometry width="50" height="50" relative="1" as="geometry">
            <mxPoint x="455" y="-267" as="sourcePoint" />
            <mxPoint x="515" y="-267" as="targetPoint" />
          </mxGeometry>
        </mxCell>
        <mxCell id="QXhUjr4avp-S5yL_64Xz-18" value="" style="endArrow=classic;html=1;rounded=0;" edge="1" parent="1">
          <mxGeometry width="50" height="50" relative="1" as="geometry">
            <mxPoint x="585" y="-57" as="sourcePoint" />
            <mxPoint x="665" y="-57" as="targetPoint" />
          </mxGeometry>
        </mxCell>
        <mxCell id="QXhUjr4avp-S5yL_64Xz-19" value="" style="endArrow=classic;html=1;rounded=0;" edge="1" parent="1">
          <mxGeometry width="50" height="50" relative="1" as="geometry">
            <mxPoint x="345" y="-57" as="sourcePoint" />
            <mxPoint x="415" y="-57" as="targetPoint" />
          </mxGeometry>
        </mxCell>
        <mxCell id="QXhUjr4avp-S5yL_64Xz-20" value="" style="edgeStyle=orthogonalEdgeStyle;rounded=0;orthogonalLoop=1;jettySize=auto;html=1;" edge="1" parent="1" target="QXhUjr4avp-S5yL_64Xz-3">
          <mxGeometry relative="1" as="geometry">
            <mxPoint x="335" y="-647" as="sourcePoint" />
          </mxGeometry>
        </mxCell>
        <mxCell id="QXhUjr4avp-S5yL_64Xz-21" value="" style="endArrow=classic;html=1;rounded=0;" edge="1" parent="1">
          <mxGeometry width="50" height="50" relative="1" as="geometry">
            <mxPoint x="260" y="-402.5" as="sourcePoint" />
            <mxPoint x="320" y="-402.5" as="targetPoint" />
          </mxGeometry>
        </mxCell>
        <mxCell id="QXhUjr4avp-S5yL_64Xz-22" value="" style="endArrow=classic;html=1;rounded=0;" edge="1" parent="1">
          <mxGeometry width="50" height="50" relative="1" as="geometry">
            <mxPoint x="610" y="-482.5" as="sourcePoint" />
            <mxPoint x="690" y="-482.5" as="targetPoint" />
          </mxGeometry>
        </mxCell>
        <mxCell id="QXhUjr4avp-S5yL_64Xz-23" value="" style="verticalLabelPosition=bottom;verticalAlign=top;html=1;shape=offPageConnector;rounded=0;size=0.5;shadow=0;" vertex="1" parent="1">
          <mxGeometry x="305" y="-710" width="60" height="60" as="geometry" />
        </mxCell>
        <mxCell id="QXhUjr4avp-S5yL_64Xz-24" value="Tambah" style="text;html=1;align=center;verticalAlign=middle;whiteSpace=wrap;rounded=0;" vertex="1" parent="1">
          <mxGeometry x="305" y="-702" width="60" height="30" as="geometry" />
        </mxCell>
        <mxCell id="QXhUjr4avp-S5yL_64Xz-25" value="" style="verticalLabelPosition=bottom;verticalAlign=top;html=1;shape=offPageConnector;rounded=0;size=0.5;" vertex="1" parent="1">
          <mxGeometry x="550" y="47.5" width="60" height="60" as="geometry" />
        </mxCell>
        <mxCell id="QXhUjr4avp-S5yL_64Xz-26" value="Tambah&lt;div&gt;OUT&lt;/div&gt;" style="text;html=1;align=center;verticalAlign=middle;whiteSpace=wrap;rounded=0;" vertex="1" parent="1">
          <mxGeometry x="550" y="62.5" width="60" height="30" as="geometry" />
        </mxCell>
      </root>
    </mxGraphModel>
  </diagram>
  <diagram id="wr0nHVXIvfOlYzWc_-RW" name="lihat">
    <mxGraphModel dx="1434" dy="836" grid="1" gridSize="10" guides="1" tooltips="1" connect="1" arrows="1" fold="1" page="1" pageScale="1" pageWidth="850" pageHeight="1100" math="0" shadow="0">
      <root>
        <mxCell id="0" />
        <mxCell id="1" parent="0" />
        <mxCell id="loe3ZbrNMl0hja-2-e7a-1" value="" style="edgeStyle=orthogonalEdgeStyle;rounded=0;orthogonalLoop=1;jettySize=auto;html=1;" edge="1" parent="1" source="loe3ZbrNMl0hja-2-e7a-3" target="loe3ZbrNMl0hja-2-e7a-5">
          <mxGeometry relative="1" as="geometry" />
        </mxCell>
        <mxCell id="loe3ZbrNMl0hja-2-e7a-2" value="" style="edgeStyle=orthogonalEdgeStyle;rounded=0;orthogonalLoop=1;jettySize=auto;html=1;" edge="1" parent="1" source="loe3ZbrNMl0hja-2-e7a-3" target="loe3ZbrNMl0hja-2-e7a-7">
          <mxGeometry relative="1" as="geometry" />
        </mxCell>
        <mxCell id="loe3ZbrNMl0hja-2-e7a-3" value="JumlahLapangan&lt;div&gt;== 0&lt;/div&gt;" style="strokeWidth=2;html=1;shape=mxgraph.flowchart.decision;whiteSpace=wrap;" vertex="1" parent="1">
          <mxGeometry x="80" y="195" width="140" height="125" as="geometry" />
        </mxCell>
        <mxCell id="loe3ZbrNMl0hja-2-e7a-4" style="edgeStyle=orthogonalEdgeStyle;rounded=0;orthogonalLoop=1;jettySize=auto;html=1;entryX=0.5;entryY=0;entryDx=0;entryDy=0;entryPerimeter=0;" edge="1" parent="1" source="loe3ZbrNMl0hja-2-e7a-5">
          <mxGeometry relative="1" as="geometry">
            <mxPoint x="150" y="535" as="targetPoint" />
          </mxGeometry>
        </mxCell>
        <mxCell id="loe3ZbrNMl0hja-2-e7a-5" value="&quot;Lapangan masih kosong&quot;" style="shape=parallelogram;html=1;strokeWidth=2;perimeter=parallelogramPerimeter;whiteSpace=wrap;rounded=1;arcSize=12;size=0.1607142857142857;" vertex="1" parent="1">
          <mxGeometry x="80" y="375" width="140" height="90" as="geometry" />
        </mxCell>
        <mxCell id="loe3ZbrNMl0hja-2-e7a-6" style="edgeStyle=orthogonalEdgeStyle;rounded=0;orthogonalLoop=1;jettySize=auto;html=1;entryX=1.043;entryY=0.683;entryDx=0;entryDy=0;entryPerimeter=0;" edge="1" parent="1" source="loe3ZbrNMl0hja-2-e7a-7">
          <mxGeometry relative="1" as="geometry">
            <mxPoint x="182.57999999999993" y="575.98" as="targetPoint" />
            <Array as="points">
              <mxPoint x="400" y="576" />
            </Array>
          </mxGeometry>
        </mxCell>
        <mxCell id="loe3ZbrNMl0hja-2-e7a-7" value="&quot;daftar lapangan&lt;div&gt;id lapangan :&lt;/div&gt;&lt;div&gt;harga sewa :&lt;/div&gt;&lt;div&gt;lokasi :&lt;/div&gt;&lt;div&gt;status : &quot;&lt;/div&gt;" style="shape=parallelogram;html=1;strokeWidth=2;perimeter=parallelogramPerimeter;whiteSpace=wrap;rounded=1;arcSize=12;size=0.23;" vertex="1" parent="1">
          <mxGeometry x="310" y="214.5" width="180" height="87" as="geometry" />
        </mxCell>
        <mxCell id="loe3ZbrNMl0hja-2-e7a-8" value="" style="edgeStyle=orthogonalEdgeStyle;rounded=0;orthogonalLoop=1;jettySize=auto;html=1;" edge="1" parent="1" source="loe3ZbrNMl0hja-2-e7a-11" target="loe3ZbrNMl0hja-2-e7a-3">
          <mxGeometry relative="1" as="geometry">
            <mxPoint x="150" y="135" as="sourcePoint" />
          </mxGeometry>
        </mxCell>
        <mxCell id="loe3ZbrNMl0hja-2-e7a-9" value="" style="endArrow=classic;html=1;rounded=0;" edge="1" parent="1">
          <mxGeometry width="50" height="50" relative="1" as="geometry">
            <mxPoint x="180" y="445" as="sourcePoint" />
            <mxPoint x="250" y="445" as="targetPoint" />
          </mxGeometry>
        </mxCell>
        <mxCell id="loe3ZbrNMl0hja-2-e7a-10" value="" style="endArrow=classic;html=1;rounded=0;" edge="1" parent="1">
          <mxGeometry width="50" height="50" relative="1" as="geometry">
            <mxPoint x="440" y="285" as="sourcePoint" />
            <mxPoint x="530" y="285" as="targetPoint" />
          </mxGeometry>
        </mxCell>
        <mxCell id="loe3ZbrNMl0hja-2-e7a-11" value="" style="verticalLabelPosition=bottom;verticalAlign=top;html=1;shape=offPageConnector;rounded=0;size=0.5;" vertex="1" parent="1">
          <mxGeometry x="120" y="70" width="60" height="60" as="geometry" />
        </mxCell>
        <mxCell id="loe3ZbrNMl0hja-2-e7a-12" value="Lihat" style="text;html=1;align=center;verticalAlign=middle;whiteSpace=wrap;rounded=0;" vertex="1" parent="1">
          <mxGeometry x="120" y="75" width="60" height="30" as="geometry" />
        </mxCell>
        <mxCell id="loe3ZbrNMl0hja-2-e7a-13" value="" style="verticalLabelPosition=bottom;verticalAlign=top;html=1;shape=offPageConnector;rounded=0;size=0.5;" vertex="1" parent="1">
          <mxGeometry x="120" y="542" width="60" height="60" as="geometry" />
        </mxCell>
        <mxCell id="loe3ZbrNMl0hja-2-e7a-14" value="Lihat&lt;div&gt;OUT&lt;/div&gt;" style="text;html=1;align=center;verticalAlign=middle;whiteSpace=wrap;rounded=0;" vertex="1" parent="1">
          <mxGeometry x="120" y="550" width="60" height="30" as="geometry" />
        </mxCell>
      </root>
    </mxGraphModel>
  </diagram>
  <diagram id="h_hAVaLDoz4CiaqabvFx" name="ubah">
    <mxGraphModel dx="1434" dy="836" grid="1" gridSize="10" guides="1" tooltips="1" connect="1" arrows="1" fold="1" page="1" pageScale="1" pageWidth="850" pageHeight="1100" math="0" shadow="0">
      <root>
        <mxCell id="0" />
        <mxCell id="1" parent="0" />
        <mxCell id="zZFquEp4_UTE-1DAMklG-1" value="" style="edgeStyle=orthogonalEdgeStyle;rounded=0;orthogonalLoop=1;jettySize=auto;html=1;" edge="1" parent="1" source="zZFquEp4_UTE-1DAMklG-3" target="zZFquEp4_UTE-1DAMklG-5">
          <mxGeometry relative="1" as="geometry" />
        </mxCell>
        <mxCell id="zZFquEp4_UTE-1DAMklG-2" style="edgeStyle=orthogonalEdgeStyle;rounded=0;orthogonalLoop=1;jettySize=auto;html=1;entryX=0;entryY=0.5;entryDx=0;entryDy=0;" edge="1" parent="1" source="zZFquEp4_UTE-1DAMklG-3" target="zZFquEp4_UTE-1DAMklG-7">
          <mxGeometry relative="1" as="geometry">
            <mxPoint x="265.00000000000045" y="250.5" as="targetPoint" />
          </mxGeometry>
        </mxCell>
        <mxCell id="zZFquEp4_UTE-1DAMklG-3" value="&quot;Jumlah Lapangan&amp;nbsp;&lt;div&gt;==0 &quot;&lt;/div&gt;" style="strokeWidth=2;html=1;shape=mxgraph.flowchart.decision;whiteSpace=wrap;" vertex="1" parent="1">
          <mxGeometry x="85" y="200.5" width="100" height="100" as="geometry" />
        </mxCell>
        <mxCell id="zZFquEp4_UTE-1DAMklG-4" style="edgeStyle=orthogonalEdgeStyle;rounded=0;orthogonalLoop=1;jettySize=auto;html=1;entryX=0;entryY=0.5;entryDx=0;entryDy=0;entryPerimeter=0;" edge="1" parent="1" source="zZFquEp4_UTE-1DAMklG-5">
          <mxGeometry relative="1" as="geometry">
            <mxPoint x="360" y="1050.5" as="targetPoint" />
            <Array as="points">
              <mxPoint x="135" y="1050" />
            </Array>
          </mxGeometry>
        </mxCell>
        <mxCell id="zZFquEp4_UTE-1DAMklG-5" value="&quot;Lapangan masih kosong" style="shape=parallelogram;html=1;strokeWidth=2;perimeter=parallelogramPerimeter;whiteSpace=wrap;rounded=1;arcSize=12;size=0.11538461538461277;" vertex="1" parent="1">
          <mxGeometry x="70" y="382.5" width="130" height="75" as="geometry" />
        </mxCell>
        <mxCell id="zZFquEp4_UTE-1DAMklG-6" value="" style="edgeStyle=orthogonalEdgeStyle;rounded=0;orthogonalLoop=1;jettySize=auto;html=1;" edge="1" parent="1" source="zZFquEp4_UTE-1DAMklG-7" target="zZFquEp4_UTE-1DAMklG-9">
          <mxGeometry relative="1" as="geometry" />
        </mxCell>
        <mxCell id="zZFquEp4_UTE-1DAMklG-7" value="&quot;ID lapangan :&quot;" style="shape=parallelogram;html=1;strokeWidth=2;perimeter=parallelogramPerimeter;whiteSpace=wrap;rounded=1;arcSize=12;size=0.23;" vertex="1" parent="1">
          <mxGeometry x="315" y="216" width="150" height="67" as="geometry" />
        </mxCell>
        <mxCell id="zZFquEp4_UTE-1DAMklG-8" value="" style="edgeStyle=orthogonalEdgeStyle;rounded=0;orthogonalLoop=1;jettySize=auto;html=1;" edge="1" parent="1" source="zZFquEp4_UTE-1DAMklG-9" target="zZFquEp4_UTE-1DAMklG-12">
          <mxGeometry relative="1" as="geometry" />
        </mxCell>
        <mxCell id="zZFquEp4_UTE-1DAMklG-9" value="&quot;Masukkan ID yang&amp;nbsp;&lt;div&gt;ingin diubah : &quot;&lt;/div&gt;" style="shape=parallelogram;html=1;strokeWidth=2;perimeter=parallelogramPerimeter;whiteSpace=wrap;rounded=1;arcSize=12;size=0.1824324324324306;" vertex="1" parent="1">
          <mxGeometry x="297.5" y="372.5" width="185" height="95" as="geometry" />
        </mxCell>
        <mxCell id="zZFquEp4_UTE-1DAMklG-10" value="" style="edgeStyle=orthogonalEdgeStyle;rounded=0;orthogonalLoop=1;jettySize=auto;html=1;" edge="1" parent="1" source="zZFquEp4_UTE-1DAMklG-12" target="zZFquEp4_UTE-1DAMklG-14">
          <mxGeometry relative="1" as="geometry" />
        </mxCell>
        <mxCell id="zZFquEp4_UTE-1DAMklG-11" value="" style="edgeStyle=orthogonalEdgeStyle;rounded=0;orthogonalLoop=1;jettySize=auto;html=1;" edge="1" parent="1" source="zZFquEp4_UTE-1DAMklG-12" target="zZFquEp4_UTE-1DAMklG-16">
          <mxGeometry relative="1" as="geometry" />
        </mxCell>
        <mxCell id="zZFquEp4_UTE-1DAMklG-12" value="idLapanganubah &amp;gt; 0 &amp;amp;&amp;amp;&lt;div&gt;idLapnganubah &amp;lt;= jumlahlapangan&lt;/div&gt;" style="strokeWidth=2;html=1;shape=mxgraph.flowchart.decision;whiteSpace=wrap;" vertex="1" parent="1">
          <mxGeometry x="313.5" y="518.5" width="155" height="160" as="geometry" />
        </mxCell>
        <mxCell id="zZFquEp4_UTE-1DAMklG-13" value="" style="edgeStyle=orthogonalEdgeStyle;rounded=0;orthogonalLoop=1;jettySize=auto;html=1;" edge="1" parent="1" source="zZFquEp4_UTE-1DAMklG-14" target="zZFquEp4_UTE-1DAMklG-18">
          <mxGeometry relative="1" as="geometry" />
        </mxCell>
        <mxCell id="zZFquEp4_UTE-1DAMklG-14" value="&quot;Masukkan Harga sewa baru :&lt;div&gt;Masukkan lokasi baru :&lt;br&gt;&lt;div&gt;Masukkan status : &quot;&lt;/div&gt;&lt;/div&gt;" style="shape=parallelogram;html=1;strokeWidth=2;perimeter=parallelogramPerimeter;whiteSpace=wrap;rounded=1;arcSize=12;size=0.12125748502994012;" vertex="1" parent="1">
          <mxGeometry x="291.5" y="727.5" width="197" height="110" as="geometry" />
        </mxCell>
        <mxCell id="zZFquEp4_UTE-1DAMklG-15" style="edgeStyle=orthogonalEdgeStyle;rounded=0;orthogonalLoop=1;jettySize=auto;html=1;entryX=1;entryY=0.5;entryDx=0;entryDy=0;" edge="1" parent="1" source="zZFquEp4_UTE-1DAMklG-16" target="zZFquEp4_UTE-1DAMklG-9">
          <mxGeometry relative="1" as="geometry">
            <Array as="points">
              <mxPoint x="625" y="420" />
            </Array>
          </mxGeometry>
        </mxCell>
        <mxCell id="zZFquEp4_UTE-1DAMklG-16" value="&quot;ID lapangan&amp;nbsp;&lt;div&gt;tidak valid&quot;&lt;/div&gt;" style="shape=parallelogram;html=1;strokeWidth=2;perimeter=parallelogramPerimeter;whiteSpace=wrap;rounded=1;arcSize=12;size=0.23;" vertex="1" parent="1">
          <mxGeometry x="540" y="549" width="160" height="99" as="geometry" />
        </mxCell>
        <mxCell id="zZFquEp4_UTE-1DAMklG-17" style="edgeStyle=orthogonalEdgeStyle;rounded=0;orthogonalLoop=1;jettySize=auto;html=1;entryX=0.5;entryY=0;entryDx=0;entryDy=0;entryPerimeter=0;" edge="1" parent="1" source="zZFquEp4_UTE-1DAMklG-18">
          <mxGeometry relative="1" as="geometry">
            <mxPoint x="390" y="1020.5" as="targetPoint" />
          </mxGeometry>
        </mxCell>
        <mxCell id="zZFquEp4_UTE-1DAMklG-18" value="&quot;Data berhasil&lt;div&gt;&amp;nbsp;diubah&quot;&lt;/div&gt;" style="shape=parallelogram;html=1;strokeWidth=2;perimeter=parallelogramPerimeter;whiteSpace=wrap;rounded=1;arcSize=12;size=0.1607142857142857;" vertex="1" parent="1">
          <mxGeometry x="328" y="887.5" width="126" height="80" as="geometry" />
        </mxCell>
        <mxCell id="zZFquEp4_UTE-1DAMklG-19" value="" style="edgeStyle=orthogonalEdgeStyle;rounded=0;orthogonalLoop=1;jettySize=auto;html=1;" edge="1" parent="1" source="zZFquEp4_UTE-1DAMklG-28" target="zZFquEp4_UTE-1DAMklG-3">
          <mxGeometry relative="1" as="geometry">
            <mxPoint x="135" y="135.5" as="sourcePoint" />
          </mxGeometry>
        </mxCell>
        <mxCell id="zZFquEp4_UTE-1DAMklG-20" value="" style="endArrow=classic;html=1;rounded=0;exitX=0.769;exitY=0.9;exitDx=0;exitDy=0;exitPerimeter=0;" edge="1" parent="1" source="zZFquEp4_UTE-1DAMklG-5">
          <mxGeometry width="50" height="50" relative="1" as="geometry">
            <mxPoint x="-30" y="380" as="sourcePoint" />
            <mxPoint x="240" y="450" as="targetPoint" />
          </mxGeometry>
        </mxCell>
        <mxCell id="zZFquEp4_UTE-1DAMklG-21" value="" style="endArrow=classic;html=1;rounded=0;" edge="1" parent="1">
          <mxGeometry width="50" height="50" relative="1" as="geometry">
            <mxPoint x="420" y="270" as="sourcePoint" />
            <mxPoint x="480" y="270" as="targetPoint" />
          </mxGeometry>
        </mxCell>
        <mxCell id="zZFquEp4_UTE-1DAMklG-22" value="" style="endArrow=classic;html=1;rounded=0;" edge="1" parent="1">
          <mxGeometry width="50" height="50" relative="1" as="geometry">
            <mxPoint x="270" y="390" as="sourcePoint" />
            <mxPoint x="350" y="390" as="targetPoint" />
          </mxGeometry>
        </mxCell>
        <mxCell id="zZFquEp4_UTE-1DAMklG-23" value="" style="endArrow=classic;html=1;rounded=0;" edge="1" parent="1">
          <mxGeometry width="50" height="50" relative="1" as="geometry">
            <mxPoint x="260" y="740" as="sourcePoint" />
            <mxPoint x="330" y="740" as="targetPoint" />
          </mxGeometry>
        </mxCell>
        <mxCell id="zZFquEp4_UTE-1DAMklG-24" value="" style="endArrow=classic;html=1;rounded=0;" edge="1" parent="1">
          <mxGeometry width="50" height="50" relative="1" as="geometry">
            <mxPoint x="640" y="630" as="sourcePoint" />
            <mxPoint x="720" y="630" as="targetPoint" />
          </mxGeometry>
        </mxCell>
        <mxCell id="zZFquEp4_UTE-1DAMklG-25" value="" style="endArrow=classic;html=1;rounded=0;" edge="1" parent="1">
          <mxGeometry width="50" height="50" relative="1" as="geometry">
            <mxPoint x="420" y="950" as="sourcePoint" />
            <mxPoint x="490" y="950" as="targetPoint" />
          </mxGeometry>
        </mxCell>
        <mxCell id="zZFquEp4_UTE-1DAMklG-26" value="" style="verticalLabelPosition=bottom;verticalAlign=top;html=1;shape=offPageConnector;rounded=0;size=0.5;" vertex="1" parent="1">
          <mxGeometry x="361" y="1021" width="60" height="60" as="geometry" />
        </mxCell>
        <mxCell id="zZFquEp4_UTE-1DAMklG-27" value="Ubah&lt;div&gt;OUT&lt;/div&gt;" style="text;html=1;align=center;verticalAlign=middle;whiteSpace=wrap;rounded=0;" vertex="1" parent="1">
          <mxGeometry x="361" y="1030" width="60" height="30" as="geometry" />
        </mxCell>
        <mxCell id="zZFquEp4_UTE-1DAMklG-28" value="" style="verticalLabelPosition=bottom;verticalAlign=top;html=1;shape=offPageConnector;rounded=0;size=0.5;" vertex="1" parent="1">
          <mxGeometry x="105" y="70" width="60" height="60" as="geometry" />
        </mxCell>
        <mxCell id="zZFquEp4_UTE-1DAMklG-29" value="Ubah" style="text;html=1;align=center;verticalAlign=middle;whiteSpace=wrap;rounded=0;" vertex="1" parent="1">
          <mxGeometry x="105" y="80" width="60" height="30" as="geometry" />
        </mxCell>
      </root>
    </mxGraphModel>
  </diagram>
  <diagram id="cHiAAg7S5PQbP6okXCob" name="hapus">
    <mxGraphModel dx="1434" dy="836" grid="1" gridSize="10" guides="1" tooltips="1" connect="1" arrows="1" fold="1" page="1" pageScale="1" pageWidth="850" pageHeight="1100" math="0" shadow="0">
      <root>
        <mxCell id="0" />
        <mxCell id="1" parent="0" />
        <mxCell id="CpwlXhWqh2Lr8C0QgnNS-1" value="" style="edgeStyle=orthogonalEdgeStyle;rounded=0;orthogonalLoop=1;jettySize=auto;html=1;" edge="1" parent="1" source="CpwlXhWqh2Lr8C0QgnNS-3" target="CpwlXhWqh2Lr8C0QgnNS-5">
          <mxGeometry relative="1" as="geometry" />
        </mxCell>
        <mxCell id="CpwlXhWqh2Lr8C0QgnNS-2" value="" style="edgeStyle=orthogonalEdgeStyle;rounded=0;orthogonalLoop=1;jettySize=auto;html=1;" edge="1" parent="1" source="CpwlXhWqh2Lr8C0QgnNS-3" target="CpwlXhWqh2Lr8C0QgnNS-7">
          <mxGeometry relative="1" as="geometry" />
        </mxCell>
        <mxCell id="CpwlXhWqh2Lr8C0QgnNS-3" value="jumlahlapangan == 0" style="strokeWidth=2;html=1;shape=mxgraph.flowchart.decision;whiteSpace=wrap;" vertex="1" parent="1">
          <mxGeometry x="182" y="252.5" width="135" height="130" as="geometry" />
        </mxCell>
        <mxCell id="CpwlXhWqh2Lr8C0QgnNS-4" style="edgeStyle=orthogonalEdgeStyle;rounded=0;orthogonalLoop=1;jettySize=auto;html=1;entryX=0;entryY=0.5;entryDx=0;entryDy=0;entryPerimeter=0;" edge="1" parent="1" source="CpwlXhWqh2Lr8C0QgnNS-5">
          <mxGeometry relative="1" as="geometry">
            <mxPoint x="445" y="982.5" as="targetPoint" />
            <Array as="points">
              <mxPoint x="250" y="982.5" />
            </Array>
          </mxGeometry>
        </mxCell>
        <mxCell id="CpwlXhWqh2Lr8C0QgnNS-5" value="&quot;Lapangan masih kosong&quot;" style="shape=parallelogram;html=1;strokeWidth=2;perimeter=parallelogramPerimeter;whiteSpace=wrap;rounded=1;arcSize=12;size=0.1607142857142857;" vertex="1" parent="1">
          <mxGeometry x="180" y="447.5" width="140" height="85" as="geometry" />
        </mxCell>
        <mxCell id="CpwlXhWqh2Lr8C0QgnNS-6" value="" style="edgeStyle=orthogonalEdgeStyle;rounded=0;orthogonalLoop=1;jettySize=auto;html=1;" edge="1" parent="1" source="CpwlXhWqh2Lr8C0QgnNS-7" target="CpwlXhWqh2Lr8C0QgnNS-9">
          <mxGeometry relative="1" as="geometry" />
        </mxCell>
        <mxCell id="CpwlXhWqh2Lr8C0QgnNS-7" value="&quot;id Lapangan :&quot;" style="shape=parallelogram;html=1;strokeWidth=2;perimeter=parallelogramPerimeter;whiteSpace=wrap;rounded=1;arcSize=12;size=0.23;" vertex="1" parent="1">
          <mxGeometry x="399.5" y="280" width="150" height="75" as="geometry" />
        </mxCell>
        <mxCell id="CpwlXhWqh2Lr8C0QgnNS-8" value="" style="edgeStyle=orthogonalEdgeStyle;rounded=0;orthogonalLoop=1;jettySize=auto;html=1;" edge="1" parent="1" source="CpwlXhWqh2Lr8C0QgnNS-9" target="CpwlXhWqh2Lr8C0QgnNS-12">
          <mxGeometry relative="1" as="geometry" />
        </mxCell>
        <mxCell id="CpwlXhWqh2Lr8C0QgnNS-9" value="&quot;Pilih ID lapangan&amp;nbsp;&lt;div&gt;yang ingin dihapus : &quot;&lt;/div&gt;" style="shape=parallelogram;html=1;strokeWidth=2;perimeter=parallelogramPerimeter;whiteSpace=wrap;rounded=1;arcSize=12;size=0.1422413793103448;" vertex="1" parent="1">
          <mxGeometry x="402" y="451.25" width="145" height="77.5" as="geometry" />
        </mxCell>
        <mxCell id="CpwlXhWqh2Lr8C0QgnNS-10" value="" style="edgeStyle=orthogonalEdgeStyle;rounded=0;orthogonalLoop=1;jettySize=auto;html=1;" edge="1" parent="1" source="CpwlXhWqh2Lr8C0QgnNS-12" target="CpwlXhWqh2Lr8C0QgnNS-14">
          <mxGeometry relative="1" as="geometry" />
        </mxCell>
        <mxCell id="CpwlXhWqh2Lr8C0QgnNS-11" value="" style="edgeStyle=orthogonalEdgeStyle;rounded=0;orthogonalLoop=1;jettySize=auto;html=1;" edge="1" parent="1" source="CpwlXhWqh2Lr8C0QgnNS-12" target="CpwlXhWqh2Lr8C0QgnNS-16">
          <mxGeometry relative="1" as="geometry" />
        </mxCell>
        <mxCell id="CpwlXhWqh2Lr8C0QgnNS-12" value="idlapanganhapus &amp;gt;0 &amp;amp;&amp;amp; idlapanganhapus &amp;lt;= jumlahlapangan" style="strokeWidth=2;html=1;shape=mxgraph.flowchart.decision;whiteSpace=wrap;" vertex="1" parent="1">
          <mxGeometry x="383.25" y="583.5" width="182.5" height="151" as="geometry" />
        </mxCell>
        <mxCell id="CpwlXhWqh2Lr8C0QgnNS-13" style="edgeStyle=orthogonalEdgeStyle;rounded=0;orthogonalLoop=1;jettySize=auto;html=1;entryX=0.5;entryY=0;entryDx=0;entryDy=0;entryPerimeter=0;" edge="1" parent="1" source="CpwlXhWqh2Lr8C0QgnNS-14">
          <mxGeometry relative="1" as="geometry">
            <mxPoint x="475" y="952.5" as="targetPoint" />
          </mxGeometry>
        </mxCell>
        <mxCell id="CpwlXhWqh2Lr8C0QgnNS-14" value="&quot;Lapangan berhasil dihapus&quot;" style="shape=parallelogram;html=1;strokeWidth=2;perimeter=parallelogramPerimeter;whiteSpace=wrap;rounded=1;arcSize=12;size=0.08333333333333333;" vertex="1" parent="1">
          <mxGeometry x="407" y="792.5" width="135" height="90" as="geometry" />
        </mxCell>
        <mxCell id="CpwlXhWqh2Lr8C0QgnNS-15" style="edgeStyle=orthogonalEdgeStyle;rounded=0;orthogonalLoop=1;jettySize=auto;html=1;entryX=1;entryY=0.5;entryDx=0;entryDy=0;" edge="1" parent="1" source="CpwlXhWqh2Lr8C0QgnNS-16" target="CpwlXhWqh2Lr8C0QgnNS-9">
          <mxGeometry relative="1" as="geometry">
            <Array as="points">
              <mxPoint x="720" y="490.5" />
            </Array>
          </mxGeometry>
        </mxCell>
        <mxCell id="CpwlXhWqh2Lr8C0QgnNS-16" value="&quot;ID lapangan tidak valid&quot;" style="shape=parallelogram;html=1;strokeWidth=2;perimeter=parallelogramPerimeter;whiteSpace=wrap;rounded=1;arcSize=12;size=0.09375;" vertex="1" parent="1">
          <mxGeometry x="639.5" y="612.5" width="160" height="93.25" as="geometry" />
        </mxCell>
        <mxCell id="CpwlXhWqh2Lr8C0QgnNS-17" value="" style="edgeStyle=orthogonalEdgeStyle;rounded=0;orthogonalLoop=1;jettySize=auto;html=1;" edge="1" parent="1" target="CpwlXhWqh2Lr8C0QgnNS-3">
          <mxGeometry relative="1" as="geometry">
            <mxPoint x="249.5" y="187.5" as="sourcePoint" />
          </mxGeometry>
        </mxCell>
        <mxCell id="CpwlXhWqh2Lr8C0QgnNS-18" value="" style="endArrow=classic;html=1;rounded=0;" edge="1" parent="1">
          <mxGeometry width="50" height="50" relative="1" as="geometry">
            <mxPoint x="280" y="515" as="sourcePoint" />
            <mxPoint x="360" y="515" as="targetPoint" />
          </mxGeometry>
        </mxCell>
        <mxCell id="CpwlXhWqh2Lr8C0QgnNS-19" value="" style="endArrow=classic;html=1;rounded=0;" edge="1" parent="1">
          <mxGeometry width="50" height="50" relative="1" as="geometry">
            <mxPoint x="490" y="345" as="sourcePoint" />
            <mxPoint x="560" y="345" as="targetPoint" />
          </mxGeometry>
        </mxCell>
        <mxCell id="CpwlXhWqh2Lr8C0QgnNS-20" value="" style="endArrow=classic;html=1;rounded=0;" edge="1" parent="1">
          <mxGeometry width="50" height="50" relative="1" as="geometry">
            <mxPoint x="380" y="465" as="sourcePoint" />
            <mxPoint x="440" y="465" as="targetPoint" />
          </mxGeometry>
        </mxCell>
        <mxCell id="CpwlXhWqh2Lr8C0QgnNS-21" value="" style="endArrow=classic;html=1;rounded=0;" edge="1" parent="1">
          <mxGeometry width="50" height="50" relative="1" as="geometry">
            <mxPoint x="520" y="865" as="sourcePoint" />
            <mxPoint x="580" y="865" as="targetPoint" />
          </mxGeometry>
        </mxCell>
        <mxCell id="CpwlXhWqh2Lr8C0QgnNS-22" value="" style="endArrow=classic;html=1;rounded=0;" edge="1" parent="1">
          <mxGeometry width="50" height="50" relative="1" as="geometry">
            <mxPoint x="760" y="695" as="sourcePoint" />
            <mxPoint x="830" y="695" as="targetPoint" />
          </mxGeometry>
        </mxCell>
        <mxCell id="CpwlXhWqh2Lr8C0QgnNS-23" value="" style="edgeStyle=orthogonalEdgeStyle;rounded=0;orthogonalLoop=1;jettySize=auto;html=1;" edge="1" parent="1" source="CpwlXhWqh2Lr8C0QgnNS-24" target="CpwlXhWqh2Lr8C0QgnNS-3">
          <mxGeometry relative="1" as="geometry" />
        </mxCell>
        <mxCell id="CpwlXhWqh2Lr8C0QgnNS-24" value="" style="verticalLabelPosition=bottom;verticalAlign=top;html=1;shape=offPageConnector;rounded=0;size=0.5;" vertex="1" parent="1">
          <mxGeometry x="220" y="110" width="60" height="60" as="geometry" />
        </mxCell>
        <mxCell id="CpwlXhWqh2Lr8C0QgnNS-25" value="Hapus" style="text;html=1;align=center;verticalAlign=middle;whiteSpace=wrap;rounded=0;" vertex="1" parent="1">
          <mxGeometry x="219.5" y="115" width="60" height="30" as="geometry" />
        </mxCell>
        <mxCell id="CpwlXhWqh2Lr8C0QgnNS-26" value="" style="verticalLabelPosition=bottom;verticalAlign=top;html=1;shape=offPageConnector;rounded=0;size=0.5;" vertex="1" parent="1">
          <mxGeometry x="444.5" y="952.5" width="60" height="60" as="geometry" />
        </mxCell>
        <mxCell id="CpwlXhWqh2Lr8C0QgnNS-27" value="Hapus&lt;div&gt;OUT&lt;/div&gt;" style="text;html=1;align=center;verticalAlign=middle;whiteSpace=wrap;rounded=0;" vertex="1" parent="1">
          <mxGeometry x="444.5" y="960" width="60" height="30" as="geometry" />
        </mxCell>
      </root>
    </mxGraphModel>
  </diagram>
</mxfile>
